# xmcd
#
# Track frame offsets: 
#        182
#        30780
#        49415
#        80990
#        98425
#        118915
#        138120
#        159502
#        177812
#        191887
#        201515
#        226090
#
# Disc length: 3272 seconds
#
# Revision: 2
# Processed by: cddbd v1.5.2PL0 Copyright (c) Steve Scherf et al.
# Submitted via: ExactAudioCopy v0.99pb5
#
DISCID=9c0cc60c
DTITLE=Phil Upchurch - Whatever Happened To The Blues
DYEAR=1992
DGENRE=Blues
TTITLE0=6 To 4
TTITLE1=The Tide Keeps Lifting Me
TTITLE2=Angel Eyes
TTITLE3=Blues March
TTITLE4=Love And Peace
TTITLE5=All Blues
TTITLE6=Whatever Happened To The Blues
TTITLE7=I Don't Want Nobody To Give Me Nothing
TTITLE8=I'm Going Down Slow
TTITLE9=Nice To Have You Around
TTITLE10=Fade To Black Tie
TTITLE11=Sweet Woman Blues
EXTD=(P) and (C) 1992
EXTT0=
EXTT1=
EXTT2=
EXTT3=
EXTT4=
EXTT5=
EXTT6=
EXTT7=
EXTT8=
EXTT9=
EXTT10=
EXTT11=
PLAYORDER=
